<svg width="256" height="256" viewBox="0 0 256 256" fill="none" xmlns="http://www.w3.org/2000/svg">
<path d="M141.711 57.9516L186.155 144.627C196.904 165.589 181.682 190.5 158.126 190.5H69.2371C45.6805 190.5 30.4589 165.589 41.2072 144.627L85.6515 57.9517C97.3611 35.1153 130.002 35.1153 141.711 57.9516Z" fill="#F19AFF" stroke="black" stroke-width="3"/>
<path d="M170.349 57.9516L214.793 144.627C225.541 165.589 210.32 190.5 186.763 190.5H97.8744C74.3178 190.5 59.0962 165.589 69.8445 144.627L114.289 57.9517C125.998 35.1153 158.639 35.1153 170.349 57.9516Z" fill="#7879F1" stroke="black" stroke-width="3"/>
<path d="M82 186C149.794 84.5096 140.916 49.0457 128.003 44" stroke="black" stroke-width="3"/>
<path d="M126 191C177.035 115.4 149.276 61.5 129.017 44" stroke="black" stroke-width="3"/>
</svg>
